<?xml version="1.0" encoding="UTF-8"?>
<svg id="Layer_2" xmlns="http://www.w3.org/2000/svg" version="1.1" viewBox="0 0 434.2 411.6">
  <!-- Generator: Adobe Illustrator 29.3.0, SVG Export Plug-In . SVG Version: 2.1.0 Build 146)  -->
  <defs>
    <style>
      .st0 {
        fill: #1f3057;
        stroke: #1f3057;
        stroke-miterlimit: 10;
        stroke-width: 8px;
      }

      .st1 {
        fill: #f9d602;
      }
    </style>
  </defs>
  <circle class="st0" cx="217.1" cy="205.8" r="201.8"/>
  <g>
    <path class="st1" d="M221.1,387.7c-19-3.4-35.7-6-52.1-9.6-3.6-.8-7.2-5-9.4-8.5-31.8-50.7-32.8-104.6-15.8-160.1,6.9-22.7,17.2-43.7,33.4-66,10.6,15,20.5,28.3,29.3,42.3,1.5,2.4-.9,7.8-2.3,11.6-11.1,30.9-18.5,62.3-17.6,95.6.9,31.3,7.9,60.1,28.1,84.8,1.9,2.3,3.2,5,6.4,10h0Z"/>
    <path class="st1" d="M371.2,105.7c7.7,17.7,15.7,35.3,22.8,53.3,1.2,3.1-.2,8.1-1.8,11.5-13.6,29.4-37,48.3-65.6,62.4-36.9,18.2-75.5,23.9-117.7,19.1,5.1-17.2,9.6-34.2,15.3-50.7.9-2.5,7.1-4,11.1-4.4,36.5-3.9,70.8-12.8,98.6-38.8,15.4-14.4,27.2-30.9,33.6-51.1,1.2-.4,2.5-.8,3.7-1.3Z"/>
    <path class="st1" d="M134.2,365.9c-21.9-8.2-40.2-21.7-52.6-39.7-7.9-11.5-10-28.1-11.5-42.8-6.2-62.5,11.1-118.7,48.7-168.8.9-1.2,1.9-2.2,3.9-4.7,12.9,6.1,25.9,12.2,39.6,18.7-47.1,75.4-62.6,153.1-28.2,237.1h0Z"/>
    <path class="st1" d="M206.3,272.7c76,3.4,141.7-11.9,194.9-72.1-2.5,17-4.5,31.3-7,45.6-.9,5.1-3.2,9.9-4.6,15-4.9,17-14.5,29.6-30.5,38.3-43.6,23.5-89.4,36.6-139.3,30.5-3.3-.4-8.3-4.4-8.7-7.2-2.2-16.6-3.4-33.3-4.8-50h0Z"/>
    <path class="st1" d="M282.5,169.3c-19.8,2.4-36.7,4.8-53.7,6.2-2.6.2-6.6-3.9-8.3-7-21.7-40.3-56-65-98.2-79.6-11.8-4.1-24.8-5.1-37.6-7.6,13.1-16.1,30.3-29.1,49.8-37,8.7-3.5,21.6.4,31.6,3.8,43.6,15.1,74.2,45.9,97.7,84.5,6.4,10.5,11.2,22,18.7,36.8h0Z"/>
    <path class="st1" d="M299.7,161c-26.5-62.5-65.2-108.3-128.7-129.6,15.9-5.6,70.8-9.9,84.6-6,4.5,1.2,9,4,12.6,7.1,27.2,23.5,47.4,52.1,62.8,84.5,2.7,5.6,3.2,10.5-1.5,15.1-9.3,9.1-18.6,18.2-29.7,29h0Z"/>
    <path class="st1" d="M47.4,279.2c-4.5-16.6-11.3-33-13.2-49.9-4.4-38.9,2.9-76,21.4-111,5.3-10.1,12.6-14,22.9-14.3,7.1-.2,14.1,0,23.3,0-35.1,54.1-55.5,110.8-50.3,174.7-1.4.1-2.8.3-4.1.5Z"/>
    <path class="st1" d="M219,350.6c46.1,1.2,87.3-5.1,127.7-21.1-7.6,12-32.1,31.8-52.7,41.1-13.2,6-27.4,9.9-41.2,14.4-2.1.7-6,.9-7-.4-8.7-10.5-16.9-21.3-26.7-34h0Z"/>
    <path class="st1" d="M348.4,105c-13.3-20.3-24.7-37.5-36.1-54.8.4-.5.7-1,1.1-1.5,11.7,9.2,24.9,17.2,34.3,28.4,4.3,5.1.7,16.7.7,28h0Z"/>
  </g>
</svg>