<?xml version="1.0" encoding="UTF-8"?>
<svg xmlns="http://www.w3.org/2000/svg" xmlns:xlink="http://www.w3.org/1999/xlink" version="1.1" viewBox="0 0 81 81">
  <!-- Generator: Adobe Illustrator 29.3.0, SVG Export Plug-In . SVG Version: 2.1.0 Build 146)  -->
  <defs>
    <style>
      .st0, .st1 {
        fill: #1f3057;
        stroke: #f9d602;
        stroke-miterlimit: 10;
      }

      .st0, .st1, .st2, .st3 {
        fill-rule: evenodd;
      }

      .st0, .st3 {
        stroke-width: 3.1px;
      }

      .st1, .st2 {
        stroke-width: 3.1px;
      }

      .st2, .st3 {
        fill: #f9d602;
        stroke: #1f3057;
        stroke-linecap: round;
        stroke-linejoin: round;
      }

      .st4 {
        display: none;
      }
    </style>
  </defs>
  <g id="Layer_1">
    <g id="lVGhoueIh9esdC_Nqu6Dw">
      <g>
        <g id="BGvMusN3oszjV-Fm-x9AK">
          <path class="st1" d="M17,33.8c-4.6-1.3-9.5-1.8-14.3-1.4-1.7,7.9-1,16.3,2.7,24.2,4.7,10.3,13.3,17.5,23.3,20.8-14.8-15.2-13.8-36.3-11.6-43.6Z"/>
        </g>
        <g id="_x38_LdFroxtNPddrwWAiR8pO">
          <path class="st1" d="M28.6,77.4c8.9,2.9,18.9,2.6,28.1-1.6,1.8-.8,3.4-1.7,5-2.7-5.9-1.7-11.3-4.8-15.6-8.9-5.4-5.1-9.4-11.7-11.2-19.1-4.9-5.4-11.1-9.2-17.9-11.2-2.2,7.3-3.3,28.4,11.6,43.6Z"/>
        </g>
        <g id="ZGdWx9m5DYEhx4GMVeg70">
          <path class="st1" d="M2.6,32.4c4.9-.4,9.7,0,14.3,1.4,6.8,2,13,5.8,17.9,11.2,7-4.1,13-10.7,17.2-18.3-6.7-7.9-19.8-16.4-34.8-17.3-7.6,5.7-12.7,13.9-14.7,22.9Z"/>
        </g>
        <g id="GxKt1bAngLrIadXRZvyHF">
          <path class="st1" d="M46.1,64.1c4.4,4.1,9.7,7.2,15.6,8.9,15.9-10.3,22.2-30.9,14.1-48.6-.2-.4-.4-.8-.6-1.2-2.8,21-15,32.6-29.1,40.9Z"/>
        </g>
        <g id="CKGvhIZtrC6RkvPKHYJac">
          <path class="st1" d="M52.1,26.8c-4.1,7.6-10.2,14.2-17.2,18.3,1.8,7.4,5.8,14,11.2,19.1,14.2-8.4,26.4-19.9,29.1-40.9-3.9-7.8-10-13.7-17.3-17.3-.1,7.1-2.3,14.4-5.8,20.9Z"/>
        </g>
        <g id="_x37_MafUmq73VRdi1BxMil9D">
          <path class="st0" d="M24.5,5.3c-2.6,1.2-4.9,2.6-7.1,4.2,14.9.9,28.1,9.4,34.7,17.3,3.6-6.5,5.7-13.8,5.8-20.9C47.8.8,35.6.2,24.5,5.3Z"/>
        </g>
      </g>
    </g>
  </g>
  <g id="Layer_2" class="st4">
    <g id="lVGhoueIh9esdC_Nqu6Dw1" data-name="lVGhoueIh9esdC_Nqu6Dw">
      <g>
        <g id="BGvMusN3oszjV-Fm-x9AK1" data-name="BGvMusN3oszjV-Fm-x9AK">
          <path class="st2" d="M17,33.8c-4.6-1.3-9.5-1.8-14.3-1.4-1.7,7.9-1,16.3,2.7,24.2,4.7,10.3,13.3,17.5,23.3,20.7-14.8-15.1-13.8-36.3-11.6-43.6Z"/>
        </g>
        <g id="_x38_LdFroxtNPddrwWAiR8pO1" data-name="_x38_LdFroxtNPddrwWAiR8pO">
          <path class="st2" d="M28.5,77.3c8.9,2.9,18.9,2.6,28.1-1.6,1.8-.8,3.4-1.7,5-2.7-5.9-1.7-11.3-4.8-15.6-8.9-5.4-5.1-9.4-11.7-11.2-19.1-4.9-5.4-11.1-9.2-17.9-11.2-2.2,7.3-3.3,28.4,11.6,43.6Z"/>
        </g>
        <g id="ZGdWx9m5DYEhx4GMVeg701" data-name="ZGdWx9m5DYEhx4GMVeg70">
          <path class="st2" d="M2.6,32.4c4.9-.4,9.7,0,14.3,1.4,6.8,2,13,5.8,17.9,11.2,7-4.1,13-10.7,17.2-18.3-6.7-7.9-19.8-16.4-34.7-17.3-7.6,5.7-12.7,13.9-14.7,22.9Z"/>
        </g>
        <g id="GxKt1bAngLrIadXRZvyHF1" data-name="GxKt1bAngLrIadXRZvyHF">
          <path class="st2" d="M46,64.1c4.4,4.1,9.7,7.2,15.6,8.9,15.8-10.3,22.2-30.9,14.1-48.6-.2-.4-.4-.8-.6-1.2-2.8,21-14.9,32.5-29.1,40.9Z"/>
        </g>
        <g id="CKGvhIZtrC6RkvPKHYJac1" data-name="CKGvhIZtrC6RkvPKHYJac">
          <path class="st2" d="M52,26.7c-4.1,7.6-10.2,14.2-17.2,18.3,1.8,7.4,5.8,14,11.2,19.1,14.2-8.4,26.3-19.9,29.1-40.9-3.9-7.8-10-13.7-17.3-17.3-.1,7.1-2.3,14.4-5.8,20.9Z"/>
        </g>
        <g id="_x37_MafUmq73VRdi1BxMil9D1" data-name="_x37_MafUmq73VRdi1BxMil9D">
          <path class="st3" d="M24.4,5.2c-2.6,1.2-4.9,2.6-7.1,4.2,14.9.9,28.1,9.4,34.7,17.3,3.6-6.5,5.7-13.8,5.8-20.9C47.8.8,35.5.2,24.4,5.2Z"/>
        </g>
      </g>
    </g>
  </g>
</svg>