<?xml version="1.0" encoding="UTF-8"?>
<svg id="Capa_7" xmlns="http://www.w3.org/2000/svg" version="1.1" viewBox="0 0 496.1 496.1">
  <!-- Generator: Adobe Illustrator 29.3.0, SVG Export Plug-In . SVG Version: 2.1.0 Build 146)  -->
  <defs>
    <style>
      .st0, .st1, .st2 {
        fill: #2273b9;
      }

      .st3 {
        stroke-width: 8px;
      }

      .st3, .st4 {
        fill: #1f3057;
      }

      .st3, .st5 {
        stroke: #1f3057;
      }

      .st3, .st2 {
        stroke-miterlimit: 10;
      }

      .st5 {
        fill: none;
        stroke-width: 12px;
      }

      .st5, .st1 {
        stroke-linejoin: round;
      }

      .st5, .st1, .st2 {
        stroke-linecap: round;
      }

      .st6 {
        fill: #fff;
      }

      .st7 {
        fill: #75caeb;
      }

      .st8 {
        fill: #f9d602;
      }

      .st1, .st2 {
        stroke: #2273b9;
      }
    </style>
  </defs>
  <path class="st7" d="M247.4,52.7l-180.3,44.8v196.4s-10.3,97.2,180.3,151.1c190.6-53.9,180.3-151.1,180.3-151.1V97.4l-180.3-44.8Z"/>
  <polygon class="st2" points="255.4 177.4 255.4 164.7 273.2 110 276.4 109.3 265.9 97.4 223.2 138.2 235.9 200.4 255.4 177.4"/>
  <path class="st4" d="M190.3,181.8s9.3-16,9.1-22.4c-2.3-2.8-5.4-7.1-7.8-12.9-.3-.8-4.7-11.7-3.5-23.1,2.1-20.3,21.9-41.1,45.1-42.2,15.1-.8,26.6,7,29.2,8.9,7.7,5.5,12,12,14.1,15.8,0,1.2,0,2.3-.1,3.4,0,0-1.6-4.8-8.7-2.6-7.1,2.2-31.4,9.8-32.4,36.6-.7,4.9-2.2,20.7,6.5,31.4,1.2,14.2-3.3,21.6-3.3,21.6,0,0,5.9-2.5,8.9-19.6l8,.6c0,.8-.1,1.5-.2,2.3-.3,2.2-.8,4.3-1.3,6,2.4.2,5.8.5,10,1.1,11.5,1.7,19.9,2.9,28.9,7.3,11.6,5.8,18.5,14.3,20.9,17.6,5.7,7.7,8.5,15.5,10,21.6,6.5,4.6,15.3,11.7,23.6,22.2,9,11.4,14,22.5,16.9,30.4-2.6,3.1-5.2,6.3-7.8,9.4l-204.9,1.8v-7.3s-1.8-5.8-2.1-14.4c-10.4-17.3-11.7-25.6-11.7-25.6,0,0-36,14-74.8,3-37.4-10.7-34.6-14.4-40.6-20.7-1.4-17,13.1-54.4,13.1-54.4l16-41.2,26.2,11s-7.5,39.5-7.2,55c40-10.9,51.8-7.3,51.8-7.3,0,0,17-28.1,68.1-13.4h0Z"/>
  <path class="st1" d="M354.4,287.2s-7.9-31.7-35.3-52c-10.7-29.5-34.8-39.1-34.8-39.1l-31.9-3.4s-8.4,19.3-34.2,14.2c-31.9-5.3-30.8-16.1-30.8-16.1,0,0-42.8-13.6-63.2,14.1-20-2.4-41.2,2.5-55.8,10.8.9,6.7-4.6,13.5-4.6,13.5,0,0,44,19.9,78.4-2.2,0,0,1.3-1.5,1.5-6.1s11.7,8.7,11.7,8.7l28.3,30.7s3.3,1.2-2.2,4.7c-3.4,16-1.8,28.9-1.8,28.9,0,0,21.2-.9,39.1-8.1,17.9-7.3,53.2-7.4,53.2-7.4,0,0,.4-18.1,1.6-19,17-16.6,17.3-43,17.3-43,0,0,4.6,1.9,6.5,23.1,3.4,13.9,8.3,15.6,33.2,36.3,2.4,2.7,4.9,13.9,4.9,13.9l19-2.5"/>
  <path class="st0" d="M218.2,118.1c6.1.7,10.3,6.9,11.4,12,2.2,9.8-5.8,21.9-14.3,21.7-6.9-.1-13.3-8.1-13.6-15.8-.3-9.2,8.2-18.8,16.4-17.9h0Z"/>
  <path class="st1" d="M197.9,122.6c.2-2.4.7-5.4,1.9-8.6,2.7-7.3,7.3-11.9,10-14.2,2.8-2.7,7.2-6.1,13.3-8,5.6-1.8,10.2-1.6,14.7-1.3,4.4.2,9.4.5,15.1,3.1,4.3,1.9,7.4,4.4,9.3,6.2-4.9,1.2-14.9,4.5-23.1,13.6-4.3,4.7-5.7,8.6-5.7,8.6-.8-1.6-3.3-6-8.6-8.4-6.5-3.1-12.8-.9-15.1-.1-6.9,2.4-10.6,7.3-11.9,9.2h0Z"/>
  <path class="st4" d="M273.2,109.9s-20.9,4.3-28.8,16.9c-5.9,15.6-4.6,24.3-4.6,24.3,0,0,.8,24.2,15.1,23.9,15.2,1,17.2,1.7,20.4-1.2s3.4-4.4,2.1-11.9c.1-2.8,1.4-2.9,1.4-2.9,0,0,1.3-1.6-1.3-2.6-1.1-1.4,1.7-2.3,1.7-2.3,0,0,.4-1.7-1.4-4.3-1.9-2.7,4.7-4.1,4.7-4.1,0,0,1.4-.6,2-2.1.3-.9.2-1.7,0-2.3-1-3.7-4.9-6.8-7.6-11.4-.5-.8-1.2-2.2-1.9-4.1.4-.4,1.6-1.8,1.9-3.9.2-1.5-.2-2.8-.4-3.3-1.1-2.8-2.2-5.7-3.3-8.6h0Z"/>
  <path class="st4" d="M69.5,289.6c2.6,14.5,8.5,36.6,23.6,58.2,16.9,24.3,36.8,35.7,64.3,51.2,20.8,11.6,51.1,26.2,90.4,36.7,36.6-9.5,64.9-22.7,83.9-32.9,30.9-16.6,51.7-28.2,69.3-53,17.6-24.9,23.4-50.9,25.5-66.5-7.5-1-19-2-32.9-1.5-26.5,1-37.3,6.8-54.8,8.7-32.8,3.7-35.2-12.2-70.8-14.1-45.5-2.5-48.1,23.1-88.9,18.2-29.5-3.6-39.4-18.4-70.8-16-16.7,1.3-30,6.6-38.7,11h0Z"/>
  <path class="st0" d="M70.8,298.9c2.6,14.5,8.5,36.6,23.6,58.2,16.9,24.3,36.8,35.7,64.3,51.2,20.8,11.6,51.1,26.2,90.4,36.7,36.6-9.5,64.9-22.7,83.9-32.9,30.9-16.6,51.7-28.2,69.3-53,17.6-24.9,23.4-50.9,25.5-66.5-7.5-1-19-2-32.9-1.5-26.5,1-37.3,6.8-54.8,8.7-32.8,3.7-35.2-12.2-70.8-14.1-45.5-2.5-48.1,23.1-88.9,18.2-29.5-3.6-39.4-18.4-70.8-16-16.7,1.3-30,6.6-38.7,11h0Z"/>
  <g>
    <path class="st4" d="M90.7,310.3c1.8-1.1,3.5-2.5,5.4-3.3,9.5-4.3,19.7-5.6,29.8-3.6,9.2,1.8,18.3,4.7,27.3,7.7,15.7,5.2,31.6,8.2,48.2,6.6,13.8-1.3,27-5,39.8-10,11.6-4.5,23.5-7.3,36-6.4,9.4.7,18.4,3.2,26.7,7.3,16,7.9,32.9,10.4,50.5,9,9.6-.8,18.9-3,28-6.2,1.4-.5,2.9-.9,4.6-.8-.9.8-1.7,1.8-2.7,2.5-21.6,15.8-45,18.2-69.8,9-9.2-3.4-18.4-7.2-27.9-9.9-14-3.9-27.8-2-41.3,2.9-10.6,3.9-21.2,7.9-32.1,10.9-16.4,4.5-32.9,4-49.2-1.5-6.7-2.3-13.4-4.5-19.8-7.4-16.7-7.6-33.9-10.4-52-6.1-.4,0-.7.1-1.1.2-.1-.2-.3-.5-.4-.7h0Z"/>
    <path class="st4" d="M103.7,336.2c4.4-3.1,9.5-4.4,14.8-4.9,13-1.3,25.4,1.7,37.4,6.4,11.9,4.6,24.1,6.9,36.9,6.5,12.5-.4,24.3-2.9,35.8-7.6,12.5-5.1,25.6-8.3,39.2-8.7,12.2-.4,24,1.8,35,7.1,18.9,9.2,38.4,11.3,58.8,6.1l.3.8c-2.1,1.3-4,3-6.2,3.9-14.6,6.2-29.5,7.5-44.7,2.1-8.4-3-16.7-6.2-25.4-8.2-17.6-4-34.8-1.2-51.6,4.8-8.9,3.2-18,6.1-27.1,8.3-17.1,4.1-33.9,1.9-50.1-4.6-11.6-4.7-23.3-9-35.8-10.5-4.3-.5-8.7-.3-13-.4-1.4,0-2.8-.1-4.2-.2,0-.3,0-.6-.1-.9h0Z"/>
    <path class="st4" d="M130.5,365.6c7.8-1,15.6-.9,23.3,1,6.7,1.6,13.2,4,19.9,5.3,12.8,2.6,25.7,1.9,38.2-1.6,7.7-2.1,15.4-4.7,22.7-7.9,23.7-10.3,47.2-10.7,70.9-.3,11.5,5.1,23.4,8.9,36.2,7.9,7.8-.6,15.5-2.2,23.2-3.3,1.1-.2,2.2-.4,3.3-.4-3.3,3.6-7.7,5.5-12.1,7-16.9,5.9-33.5,4.6-49.9-1.8-13-5-26.4-8.2-40.5-7.5-12.6.6-24.1,4.7-35.7,9.5-9.3,3.8-19,6.8-28.7,8.9-12,2.6-23.8.2-35.4-3.7-10.1-3.4-20.4-6.5-30.7-9.6-.9-.3-2,0-2.8-.5-1-.5-1.8-1.3-2.6-2,.2-.4.5-.7.7-1.1h0Z"/>
    <path class="st4" d="M192.4,398c4.9,0,9.8,0,14.7,0,10.6,0,20.3-3.3,29.8-7.6,10.7-4.9,21.8-7.9,33.7-7.4,12.9.5,24.5,5.1,35.4,11.8,1.1.7,1.9,2,2.8,3-.1.2-.3.5-.5.7-3.5-.7-7.1-1.4-10.7-2.2-9.5-2.1-19.1-4.1-29-3.7-12.2.5-23.8,3.3-35.1,8-11.8,4.8-24.1,5.3-36.3.8-2-.7-4.3-1.3-4.9-3.3h0Z"/>
    <path class="st4" d="M240.1,418.7c8.7-7.5,34.9-8.5,41.7-1.4-9.9-1.6-18.7,2-27.8,3.1-3.5.4-7.1-.2-10.6-.4-1,0-1.9-.7-3.2-1.2Z"/>
  </g>
  <path class="st5" d="M67,97.4l180.3-44.8,180.3,44.8v196.4s10.3,97.2-180.3,151.1c-190.6-53.9-180.3-151.1-180.3-151.1v-45.6"/>
  <g>
    <circle class="st3" cx="89.9" cy="96.8" r="51.8"/>
    <g>
      <path class="st8" d="M91.1,143.6c-4.9-.9-9.2-1.5-13.4-2.5-.9-.2-1.8-1.3-2.4-2.2-8.2-13-8.4-26.9-4.1-41.1,1.8-5.8,4.4-11.2,8.6-17,2.7,3.9,5.3,7.3,7.5,10.9.4.6-.2,2-.6,3-2.9,7.9-4.8,16-4.5,24.5.2,8,2,15.4,7.2,21.8.5.6.8,1.3,1.6,2.6h0Z"/>
      <path class="st8" d="M129.6,71.2c2,4.5,4,9.1,5.9,13.7.3.8,0,2.1-.5,3-3.5,7.5-9.5,12.4-16.8,16-9.5,4.7-19.4,6.1-30.2,4.9,1.3-4.4,2.5-8.8,3.9-13,.2-.6,1.8-1,2.8-1.1,9.4-1,18.2-3.3,25.3-10,3.9-3.7,7-7.9,8.6-13.1.3-.1.6-.2.9-.3h0Z"/>
      <path class="st8" d="M68.8,138c-5.6-2.1-10.3-5.6-13.5-10.2-2-2.9-2.6-7.2-2.9-11-1.6-16.1,2.9-30.5,12.5-43.4.2-.3.5-.6,1-1.2,3.3,1.6,6.7,3.1,10.2,4.8-12.1,19.4-16.1,39.3-7.2,60.9h0Z"/>
      <path class="st8" d="M87.3,114.1c19.5.9,36.4-3.1,50.1-18.5-.6,4.4-1.1,8-1.8,11.7-.2,1.3-.8,2.6-1.2,3.8-1.3,4.4-3.7,7.6-7.9,9.8-11.2,6.1-22.9,9.4-35.8,7.8-.8,0-2.1-1.1-2.2-1.8-.6-4.3-.9-8.6-1.2-12.8h0Z"/>
      <path class="st8" d="M106.9,87.6c-5.1.6-9.4,1.2-13.8,1.6-.7,0-1.7-1-2.1-1.8-5.6-10.3-14.4-16.7-25.2-20.5-3-1.1-6.4-1.3-9.7-1.9,3.3-4.1,7.8-7.5,12.8-9.5,2.2-.9,5.6,0,8.1,1,11.2,3.9,19.1,11.8,25.1,21.7,1.6,2.7,2.9,5.7,4.8,9.4h0Z"/>
      <path class="st8" d="M111.3,85.4c-6.8-16.1-16.7-27.8-33.1-33.3,4.1-1.5,18.2-2.5,21.7-1.5,1.2.3,2.3,1,3.2,1.8,7,6,12.2,13.4,16.1,21.7.7,1.4.8,2.7-.4,3.9-2.4,2.3-4.8,4.7-7.6,7.5h0Z"/>
      <path class="st8" d="M46.5,115.8c-1.2-4.3-2.9-8.5-3.4-12.8-1.1-10,.8-19.5,5.5-28.5,1.4-2.6,3.2-3.6,5.9-3.7,1.8,0,3.6,0,6,0-9,13.9-14.2,28.5-12.9,44.9-.3,0-.7,0-1.1.1h0Z"/>
      <path class="st8" d="M90.6,134.1c11.9.3,22.4-1.3,32.8-5.4-2,3.1-8.2,8.2-13.5,10.6-3.4,1.5-7,2.5-10.6,3.7-.6.2-1.5.2-1.8,0-2.2-2.7-4.3-5.5-6.9-8.7h0Z"/>
      <path class="st8" d="M123.8,71c-3.4-5.2-6.4-9.6-9.3-14.1,0-.1.2-.3.3-.4,3,2.4,6.4,4.4,8.8,7.3,1.1,1.3.2,4.3.2,7.2h0Z"/>
    </g>
  </g>
  <path class="st4" d="M450.4,155.5l-67.8-39.5-61.8,39.5v.2c.1,0,.1,75.4.1,75.4,22.6,13.2,45.1,26.4,67.7,39.7l61.8-39.5v-.2c-.1,0,0,0,0,0v-75.6h0Z"/>
  <path class="st0" d="M326.1,160.9c0-1.1.6-2.7,1.5-3.3l55.2-37.9v7.1c0,21.5,0,43,0,64.5,0,1.8-.4,3-2.1,4M382.8,126.8c0,21.5,0,43,0,64.5,0,1.8-.4,3-2.1,4l-54.7,32.9c0-21.4,0-45.7,0-67.3s.6-2.7,1.5-3.3"/>
  <path class="st6" d="M420.9,161.4c2.9-3.3,5.6-6.4,8.5-9.7,3.7,2.1,7.4,4.1,11.3,6.3-3.8,4.5-7,9.1-11,12.9-3.6,3.4-3.7,6.4-1.9,10.7,4.3,10.3,7.9,20.8,11.3,31.7-4.3-2.7-8.7-5.3-13-8.1-.7-.4-.9-1.7-1.2-2.6-2.2-6.4-4.3-12.7-6.5-19.3-3.6,4.2-7,8.3-10.6,12.4-4.1-2.4-8-4.6-12.2-7.1,2.9-3.4,5.6-6.6,8.4-9.8,2.3-2.6,4.5-5.3,6.9-7.8,1.2-1.3,1.3-2.4.7-4.1-3.6-10.4-7.1-20.9-10.7-31.3-.2-.5-.2-1.1-.4-1.9,4.4,2.6,8.6,4.9,12.6,7.4.6.4,1,1.3,1.3,2.1,2.1,5.9,4.1,11.8,6.2,18h0Z"/>
  <path class="st5" d="M450.4,155.5c-22.3-13.2-44.6-26.3-66.9-39.5l-61,39.5v.2c.1,0,.1,75.4.1,75.4,22.3,13.2,44.5,26.4,66.8,39.7l61-39.5v-.2c-.1,0,0,0,0,0v-75.6h0Z"/>
  <path class="st0" d="M384.1,203.1c.9-.5,2.4-.7,3.3-.2l57.5,29.8c-1.8,1.1-3.6,2.2-5.5,3.3-16.4,9.9-32.8,19.8-49.2,29.8-1.4.8-2.5,1-4.1,0M439.5,235.9c-16.4,9.9-32.8,19.8-49.2,29.8-1.4.8-2.5,1-4.1,0l-53.5-31.7c16.3-9.8,34.9-21,51.4-31,.9-.5,2.4-.7,3.3-.2"/>
  <polygon class="st6" points="338.4 167.2 338.4 179.9 350.5 168.3 350.5 203.2 363.7 195.3 363.7 143.3 350 151.8 338.4 167.2"/>
  <path class="st6" d="M366.1,243.2l11.5-7.5c-.3-1.1-.6-2.6-.3-4.4.1-.7.6-3.7,3.1-5.6.6-.4,1.8-1.3,3.2-1.1,1.5.2,2.5,1.3,2.6,1.5,2,2.3.9,6.1.1,8.4-1.2,3.7-3.5,9.3-7.6,16.3,3.1,2.4,6.2,4.9,9.4,7.3,10.6-7.4,21.2-14.8,31.8-22.1-3.2-1.6-6.3-3.3-9.5-4.9-6.2,4.1-12.4,8.3-18.6,12.4,1.1-1.4,9.2-11.4,5.8-21.3-.5-1.4-1.4-4.1-3.9-5.9-5.8-4.1-14.9,0-19.4,3.3-1.7,1.2-7.1,5.3-8.7,12.8-1.1,4.8-.1,8.8.5,10.8h0Z"/>
</svg>