<?xml version="1.0" encoding="UTF-8"?>
<svg xmlns="http://www.w3.org/2000/svg" viewBox="0 0 1859.43 409.98">
  <defs>
    <style>
      .cls-1, .cls-2, .cls-3 {
        fill: #2273b9;
      }

      .cls-2, .cls-3 {
        stroke: #2273b9;
      }

      .cls-2, .cls-3, .cls-4 {
        stroke-linecap: round;
      }

      .cls-2, .cls-4 {
        stroke-linejoin: round;
      }

      .cls-3, .cls-5 {
        stroke-miterlimit: 10;
      }

      .cls-6 {
        fill: #f9d602;
      }

      .cls-7, .cls-5 {
        fill: #1f3057;
      }

      .cls-8 {
        fill: #1b3f7b;
      }

      .cls-9 {
        fill: #fff;
      }

      .cls-5 {
        stroke-width: 8px;
      }

      .cls-5, .cls-4 {
        stroke: #1f3057;
      }

      .cls-10 {
        fill: #75caeb;
      }

      .cls-4 {
        fill: none;
        stroke-width: 12px;
      }
    </style>
  </defs>
  <g id="Layer_8" data-name="Layer 8">
    <g>
      <path class="cls-8" d="M704.79,206.06c0,9.11-.91,17.58-2.73,25.41-1.82,7.47-4.46,15.03-7.92,22.68-2.92,6.19-7.1,12.66-12.57,19.4-5.1,6.19-10.66,11.38-16.67,15.57l50,54.64h-30.05c-3.82,0-7.83-.64-12.02-1.91-3.28-1.09-6.47-3.28-9.56-6.56l-28.96-31.97c-4.19,1.28-8.93,2.19-14.21,2.73-6.56.73-11.66,1.09-15.3,1.09-14.57,0-28.23-2.55-40.98-7.65-12.38-4.92-22.95-11.93-31.69-21.04-8.74-9.11-15.57-19.76-20.49-31.97-4.74-11.84-7.1-25.32-7.1-40.44s2.37-28.32,7.1-40.16c4.92-12.39,11.75-23.04,20.49-31.97,8.74-9.11,19.31-16.12,31.69-21.04,12.75-5.1,26.41-7.65,40.98-7.65s28.69,2.55,40.71,7.65c12.75,5.46,23.31,12.48,31.69,21.04,8.38,8.74,15.12,19.4,20.22,31.97,4.92,12.2,7.38,25.59,7.38,40.16ZM667.09,206.06c0-10.02-1.46-19.67-4.37-28.96-2.73-8.38-6.83-15.66-12.29-21.86-5.46-6.01-12.02-10.66-19.67-13.93-7.29-3.1-15.94-4.64-25.95-4.64s-18.67,1.55-25.95,4.64c-8.01,3.46-14.66,8.11-19.94,13.93-5.46,6.01-9.65,13.3-12.57,21.86-2.92,8.56-4.37,18.21-4.37,28.96s1.46,20.67,4.37,29.23c2.92,8.56,7.1,15.85,12.57,21.86,5.28,5.83,11.93,10.47,19.94,13.93,7.29,3.1,15.94,4.64,25.95,4.64s18.67-1.55,25.95-4.64c7.65-3.28,14.21-7.92,19.67-13.93,5.46-6.19,9.56-13.48,12.29-21.86,2.92-9.29,4.37-19.03,4.37-29.23ZM927.43,123.55c0,4.55-2.28,7.38-6.83,8.47l-1.64.27c-.55,0-1.19.09-1.91.27-.55.18-1.28.36-2.19.55l-8.2,1.37v91.25c0,11.84-1.91,22.68-5.74,32.51-4.01,10.38-9.38,19.03-16.12,25.95-7.1,7.1-15.76,12.75-25.95,16.94-9.84,4.01-21.22,6.01-34.15,6.01s-24.32-2-34.15-6.01c-9.84-4.01-18.4-9.65-25.68-16.94-7.1-7.29-12.57-15.94-16.39-25.95-3.65-9.29-5.46-20.13-5.46-32.51v-91.25l-8.2-1.37c-.91-.18-1.73-.36-2.46-.55-.55-.18-1.09-.27-1.64-.27l-1.64-.27c-4.55-1.09-6.83-3.92-6.83-8.47v-16.12h79.23v16.12c0,4.55-2.28,7.38-6.83,8.47l-1.91.27c-.55,0-1.19.09-1.91.27-.73.18-1.64.36-2.73.55l-8.47,1.37v90.98c0,8.2,1,15.03,3.01,20.49,1.82,5.83,4.82,11.11,9.02,15.85,3.46,4.01,8.1,7.29,13.93,9.84,5.28,2.37,11.65,3.55,19.12,3.55s13.84-1.18,19.12-3.55c6.19-2.73,10.93-6.01,14.21-9.84,3.46-4.01,6.37-9.2,8.74-15.57,2.19-6.92,3.28-13.75,3.28-20.49v-91.25l-8.47-1.37c-1.09-.18-2.01-.36-2.73-.55-.73-.18-1.37-.27-1.91-.27l-1.91-.27c-4.55-1.09-6.83-3.92-6.83-8.47v-16.12h79.23v16.12ZM1006.73,132.29c-.55,0-1.18.09-1.91.27-.55.18-1.28.36-2.19.55l-7.92,1.37v143.44l7.92,1.37c.91.18,1.64.36,2.19.55.73.18,1.37.27,1.91.27l1.64.27c4.55,1.09,6.83,3.92,6.83,8.47v16.12h-78.14v-16.12c0-4.55,2.28-7.38,6.83-8.47l1.64-.27,4.1-.82,8.2-1.37v-143.44l-8.2-1.37c-.91-.18-1.73-.36-2.46-.55-.55-.18-1.09-.27-1.64-.27l-1.64-.27c-4.55-1.09-6.83-3.92-6.83-8.47v-16.12h78.14v16.12c0,4.55-2.28,7.38-6.83,8.47l-1.64.27ZM1234.09,123.55c0,4.55-2.28,7.38-6.83,8.47l-1.64.27c-.55,0-1.18.09-1.91.27-.55.18-1.27.36-2.19.55l-7.92,1.37v170.48h-19.12c-2.55,0-4.92-.46-7.1-1.37-1.82-.73-3.73-2.37-5.74-4.92l-103.27-131.41c.37,4.01.55,6.83.55,8.47l.27,7.92v94.26l17.76,2.46c4.55,1.09,6.83,3.92,6.83,8.47v16.12h-77.59v-16.12c0-4.55,2.28-7.38,6.83-8.47l1.64-.27,4.1-.82,8.2-1.37v-143.44l-8.2-1.37c-.91-.18-1.73-.36-2.46-.55-.55-.18-1.09-.27-1.64-.27l-1.64-.27c-4.55-1.09-6.83-3.92-6.83-8.47v-16.12h39.89l4.1.27c1.28,0,2.28.27,3.01.82.73.18,1.55.73,2.46,1.64l2.73,3.28,103.82,131.96-.82-9.29c-.18-2-.27-4.92-.27-8.74v-92.89l-17.76-2.46c-4.55-1.09-6.83-3.92-6.83-8.47v-16.12h77.59v16.12ZM1313.29,132.29c-.55,0-1.18.09-1.91.27-.55.18-1.28.36-2.19.55l-7.92,1.37v143.44l7.92,1.37c.91.18,1.64.36,2.19.55.73.18,1.37.27,1.91.27l1.64.27c4.55,1.09,6.83,3.92,6.83,8.47v16.12h-78.14v-16.12c0-4.55,2.28-7.38,6.83-8.47l1.64-.27,4.1-.82,8.2-1.37v-143.44l-8.2-1.37c-.91-.18-1.73-.36-2.46-.55-.55-.18-1.09-.27-1.64-.27l-1.64-.27c-4.55-1.09-6.83-3.92-6.83-8.47v-16.12h78.14v16.12c0,4.55-2.28,7.38-6.83,8.47l-1.64.27Z"/>
      <path class="cls-1" d="M1476.72,203.33c2.55,9.29,3.82,19.4,3.82,30.33,0,9.84-1.46,19.58-4.37,29.23-2.55,8.74-6.56,16.48-12.02,23.22-4.92,6.19-11.2,11.29-18.85,15.3-7.1,3.64-15.48,5.46-25.14,5.46-8.02,0-14.66-1.18-19.94-3.55-6.01-2.73-11.02-6.1-15.03-10.11v30.33c1.82.36,3.37.64,4.64.82,1.46.36,2.64.64,3.55.82,2.91.36,4.28.55,4.1.55l1.64.27c4.55,1.09,6.83,4.01,6.83,8.74v15.85h-75.13v-15.85c0-4.74,2.28-7.65,6.83-8.74l1.64-.27,4.1-.55,8.2-1.64v-131.69l-8.2-1.37c-.91-.18-1.73-.36-2.46-.55-.55-.18-1.09-.27-1.64-.27l-1.64-.27c-4.55-1.09-6.83-3.92-6.83-8.47v-16.12h41.25c2.19,0,4.1.55,5.74,1.64,1.46.91,2.46,2.46,3.01,4.64l2.73,12.84c5.46-6.19,11.93-11.38,19.4-15.57,7.28-4.01,15.85-6.01,25.68-6.01,8.01,0,15.03,1.55,21.04,4.64,6.37,3.28,11.84,7.92,16.39,13.93,4.55,5.83,8.1,13.3,10.66,22.4ZM1443.39,254.97c1.46-5.28,2.19-12.29,2.19-21.04s-.64-15.76-1.91-21.04c-1.28-5.46-3.19-10.02-5.74-13.66-2.55-3.64-5.56-6.28-9.02-7.92-3.46-1.64-7.38-2.46-11.75-2.46-7.29,0-13.3,1.46-18.03,4.37-5.1,3.1-9.75,7.29-13.93,12.57v62.84c3.64,4.55,7.83,7.83,12.57,9.84,4.19,1.82,9.02,2.73,14.48,2.73s10.11-.91,13.93-2.73c3.64-1.64,7.1-4.55,10.38-8.74,3.1-4.19,5.37-9.11,6.83-14.75ZM1558.72,162.62c10.02,0,19.49,1.73,28.41,5.19,8.74,3.46,16.03,8.2,21.86,14.21,5.83,6.01,10.38,13.57,13.66,22.68,3.28,8.92,4.92,18.85,4.92,29.78s-1.64,20.95-4.92,30.05c-3.46,9.29-8.01,16.94-13.66,22.95-6.01,6.37-13.29,11.2-21.86,14.48-8.38,3.28-17.85,4.92-28.41,4.92s-20.12-1.64-28.69-4.92c-8.56-3.28-15.85-8.11-21.86-14.48-6.37-6.56-11.11-14.21-14.21-22.95-3.28-9.11-4.92-19.12-4.92-30.05s1.64-20.85,4.92-29.78c3.1-8.38,7.83-15.94,14.21-22.68,5.83-6.01,13.11-10.75,21.86-14.21,8.93-3.46,18.49-5.19,28.69-5.19ZM1558.72,280.92c11.66,0,20.22-3.92,25.68-11.75,5.65-8.2,8.47-19.67,8.47-34.42s-2.82-26.23-8.47-34.42c-5.46-8.01-14.02-12.02-25.68-12.02s-20.4,4.01-26.23,12.02c-5.83,8.01-8.74,19.58-8.74,34.7s2.92,26.14,8.74,34.15c5.65,7.83,14.39,11.75,26.23,11.75ZM1705.46,280.37c4.55,1.09,6.83,3.92,6.83,8.47v16.12h-75.13v-16.12c0-4.55,2.28-7.38,6.83-8.47l1.64-.27,4.1-.82,8.2-1.37v-148.9l-8.2-1.37c-.91-.18-1.73-.36-2.46-.55-.55-.18-1.09-.27-1.64-.27l-1.64-.27c-4.55-1.09-6.83-3.92-6.83-8.47v-16.12h54.37v175.95l8.2,1.37,4.1.82,1.64.27ZM1790.58,162.62c10.02,0,19.49,1.73,28.41,5.19,8.74,3.46,16.03,8.2,21.86,14.21,5.83,6.01,10.38,13.57,13.66,22.68,3.28,8.92,4.92,18.85,4.92,29.78s-1.64,20.95-4.92,30.05c-3.46,9.29-8.02,16.94-13.66,22.95-6.01,6.37-13.3,11.2-21.86,14.48-8.38,3.28-17.85,4.92-28.41,4.92s-20.13-1.64-28.69-4.92c-8.56-3.28-15.85-8.11-21.86-14.48-6.38-6.56-11.11-14.21-14.21-22.95-3.28-9.11-4.92-19.12-4.92-30.05s1.64-20.85,4.92-29.78c3.1-8.38,7.83-15.94,14.21-22.68,5.83-6.01,13.11-10.75,21.86-14.21,8.92-3.46,18.48-5.19,28.69-5.19ZM1790.58,280.92c11.65,0,20.22-3.92,25.68-11.75,5.64-8.2,8.47-19.67,8.47-34.42s-2.83-26.23-8.47-34.42c-5.46-8.01-14.03-12.02-25.68-12.02s-20.4,4.01-26.23,12.02c-5.83,8.01-8.74,19.58-8.74,34.7s2.91,26.14,8.74,34.15c5.64,7.83,14.39,11.75,26.23,11.75Z"/>
    </g>
  </g>
  <g id="Capa_7" data-name="Capa 7">
    <path class="cls-10" d="M225.17,11.69L44.83,56.46v196.41s-10.28,97.19,180.34,151.11c190.62-53.93,180.34-151.11,180.34-151.11V56.46L225.17,11.69Z"/>
    <polygon class="cls-3" points="233.21 136.43 233.21 123.69 250.99 69.02 254.21 68.31 243.71 56.46 200.99 97.24 213.66 159.46 233.21 136.43"/>
    <path class="cls-7" d="M168.1,140.8s9.33-16,9.11-22.44c-2.34-2.78-5.43-7.07-7.83-12.89-.33-.8-4.7-11.72-3.5-23.11,2.15-20.31,21.91-41.05,45.11-42.22,15.13-.77,26.63,7.04,29.22,8.89,7.68,5.48,11.98,12.01,14.11,15.85-.04,1.15-.07,2.3-.11,3.44,0,0-1.56-4.81-8.7-2.59-7.15,2.22-31.41,9.81-32.44,36.63-.74,4.89-2.22,20.74,6.52,31.41,1.19,14.22-3.26,21.63-3.26,21.63,0,0,5.87-2.52,8.86-19.56l8.03.59c-.05.75-.13,1.53-.24,2.33-.3,2.24-.78,4.26-1.31,6.04,2.36.18,5.83.51,10,1.11,11.5,1.66,19.94,2.87,28.89,7.33,11.65,5.81,18.45,14.28,20.89,17.56,5.7,7.66,8.54,15.47,10,21.56,6.55,4.56,15.28,11.7,23.56,22.22,9,11.44,14.04,22.54,16.89,30.37-2.59,3.14-5.19,6.27-7.78,9.41l-204.89,1.78v-7.33s-1.78-5.78-2.11-14.44c-10.44-17.33-11.67-25.56-11.67-25.56,0,0-36,14-74.78,3C3.21,201.13,6.1,197.35.1,191.13c-1.44-17,13.11-54.41,13.11-54.41l16-41.19,26.22,10.96s-7.48,39.48-7.19,55.04c40-10.89,51.78-7.33,51.78-7.33,0,0,16.96-28.07,68.07-13.41Z"/>
    <path class="cls-2" d="M332.17,246.2s-7.85-31.7-35.26-52c-10.67-29.48-34.81-39.11-34.81-39.11l-31.85-3.41s-8.44,19.26-34.22,14.22c-31.85-5.33-30.83-16.15-30.83-16.15,0,0-42.8-13.63-63.24,14.07-20-2.37-41.19,2.52-55.85,10.81.89,6.67-4.59,13.48-4.59,13.48,0,0,44,19.85,78.37-2.22,0,0,1.33-1.48,1.48-6.07s11.7,8.74,11.7,8.74l28.3,30.67s3.26,1.19-2.22,4.74c-3.41,16-1.78,28.89-1.78,28.89,0,0,21.19-.89,39.11-8.15,17.93-7.26,53.19-7.41,53.19-7.41,0,0,.44-18.07,1.63-18.96,17.04-16.59,17.33-42.96,17.33-42.96,0,0,4.59,1.93,6.52,23.11,3.41,13.93,8.3,15.56,33.19,36.3,2.37,2.67,4.89,13.93,4.89,13.93l18.96-2.52"/>
    <path class="cls-1" d="M195.99,77.08c6.06.69,10.32,6.93,11.44,12.04,2.16,9.8-5.75,21.85-14.33,21.67-6.89-.14-13.29-8.14-13.56-15.81-.32-9.25,8.23-18.84,16.44-17.9Z"/>
    <path class="cls-2" d="M175.66,81.57c.18-2.39.67-5.36,1.85-8.6,2.66-7.31,7.34-11.92,10.04-14.18,2.78-2.67,7.19-6.06,13.33-8,5.62-1.77,10.2-1.55,14.66-1.33,4.36.22,9.36.51,15.12,3.1,4.3,1.94,7.39,4.41,9.33,6.22-4.88,1.15-14.85,4.53-23.1,13.56-4.29,4.69-5.68,8.56-5.68,8.56-.83-1.64-3.33-6.01-8.56-8.44-6.55-3.06-12.76-.92-15.11-.11-6.87,2.37-10.6,7.32-11.89,9.22Z"/>
    <path class="cls-7" d="M250.99,68.91s-20.89,4.33-28.78,16.89c-5.89,15.56-4.56,24.33-4.56,24.33,0,0,.78,24.22,15.11,23.89,15.22,1,17.22,1.67,20.44-1.22,3.22-2.89,3.44-4.44,2.11-11.89.11-2.78,1.44-2.89,1.44-2.89,0,0,1.33-1.56-1.33-2.56-1.11-1.44,1.67-2.33,1.67-2.33,0,0,.44-1.67-1.44-4.33-1.89-2.67,4.67-4.11,4.67-4.11,0,0,1.44-.61,1.98-2.11.31-.87.19-1.69.02-2.34-.96-3.67-4.85-6.78-7.56-11.44-.48-.83-1.23-2.23-1.91-4.13.42-.43,1.64-1.76,1.91-3.87.19-1.53-.21-2.75-.44-3.33-1.11-2.85-2.22-5.7-3.33-8.56Z"/>
    <path class="cls-7" d="M47.29,248.57c2.6,14.47,8.52,36.6,23.57,58.24,16.87,24.26,36.75,35.71,64.28,51.16,20.76,11.65,51.11,26.16,90.37,36.68,36.61-9.55,64.85-22.67,83.85-32.91,30.87-16.65,51.74-28.22,69.31-52.96,17.64-24.85,23.36-50.88,25.51-66.47-7.53-.98-18.99-2.03-32.93-1.51-26.46,1-37.31,6.77-54.78,8.72-32.83,3.66-35.22-12.19-70.81-14.11-45.52-2.45-48.11,23.12-88.89,18.18-29.53-3.58-39.43-18.35-70.81-15.99-16.67,1.26-30.02,6.64-38.67,10.97Z"/>
    <path class="cls-1" d="M48.62,257.91c2.6,14.47,8.52,36.6,23.57,58.24,16.87,24.26,36.75,35.71,64.28,51.16,20.76,11.65,51.11,26.16,90.37,36.68,36.61-9.55,64.85-22.67,83.85-32.91,30.87-16.65,51.74-28.22,69.31-52.96,17.64-24.85,23.36-50.88,25.51-66.47-7.53-.98-18.99-2.03-32.93-1.51-26.46,1-37.31,6.77-54.78,8.72-32.83,3.66-35.22-12.19-70.81-14.11-45.52-2.45-48.11,23.12-88.89,18.18-29.53-3.58-39.43-18.35-70.81-15.99-16.67,1.26-30.02,6.64-38.67,10.97Z"/>
    <g>
      <path class="cls-7" d="M68.5,269.27c1.8-1.13,3.49-2.47,5.4-3.34,9.54-4.32,19.66-5.65,29.8-3.63,9.25,1.84,18.34,4.67,27.3,7.66,15.7,5.23,31.57,8.19,48.21,6.59,13.81-1.33,26.96-5,39.81-10.03,11.57-4.52,23.45-7.3,35.98-6.4,9.38.68,18.35,3.16,26.72,7.29,16.02,7.9,32.91,10.42,50.51,8.97,9.58-.79,18.9-2.97,27.96-6.21,1.42-.51,2.88-.9,4.61-.8-.91.83-1.74,1.75-2.73,2.48-21.63,15.83-44.97,18.2-69.84,8.95-9.24-3.44-18.39-7.22-27.86-9.85-13.96-3.87-27.76-2.04-41.3,2.9-10.62,3.87-21.22,7.92-32.11,10.9-16.42,4.5-32.95,4.03-49.17-1.51-6.67-2.28-13.42-4.47-19.83-7.39-16.74-7.63-33.93-10.39-52.02-6.07-.35.08-.71.13-1.07.19-.13-.23-.26-.47-.4-.7Z"/>
      <path class="cls-7" d="M81.52,295.24c4.42-3.12,9.54-4.35,14.84-4.87,13.04-1.28,25.43,1.74,37.43,6.4,11.91,4.62,24.06,6.87,36.88,6.51,12.47-.36,24.33-2.91,35.82-7.62,12.55-5.15,25.6-8.27,39.17-8.69,12.17-.38,24.01,1.8,34.96,7.12,18.9,9.18,38.39,11.31,58.75,6.13l.34.8c-2.06,1.32-3.98,2.98-6.2,3.92-14.61,6.2-29.46,7.48-44.68,2.13-8.38-2.95-16.73-6.21-25.36-8.19-17.6-4.03-34.75-1.2-51.59,4.79-8.91,3.17-17.96,6.11-27.15,8.29-17.11,4.07-33.89,1.94-50.06-4.65-11.6-4.72-23.31-8.95-35.79-10.5-4.3-.53-8.69-.28-13.04-.4-1.4-.04-2.8-.15-4.2-.23-.04-.31-.08-.62-.12-.92Z"/>
      <path class="cls-7" d="M108.33,324.64c7.81-1.05,15.61-.85,23.29,1.01,6.66,1.61,13.16,3.96,19.86,5.34,12.82,2.64,25.67,1.87,38.23-1.61,7.71-2.13,15.37-4.7,22.7-7.88,23.67-10.28,47.22-10.71,70.9-.28,11.53,5.08,23.43,8.91,36.2,7.91,7.78-.61,15.49-2.16,23.22-3.31,1.09-.16,2.16-.42,3.32-.37-3.34,3.63-7.66,5.47-12.1,7.02-16.86,5.89-33.5,4.56-49.93-1.77-13.04-5.02-26.37-8.2-40.5-7.53-12.6.6-24.11,4.74-35.67,9.45-9.26,3.77-18.95,6.82-28.72,8.93-11.99,2.59-23.82.18-35.37-3.72-10.15-3.43-20.44-6.46-30.68-9.63-.91-.28-2.01-.08-2.84-.47-.97-.46-1.75-1.33-2.62-2.02.24-.36.47-.71.71-1.07Z"/>
      <path class="cls-7" d="M170.2,357.04c4.88,0,9.78-.02,14.68,0,10.61.06,20.3-3.28,29.81-7.63,10.66-4.88,21.8-7.85,33.68-7.37,12.93.53,24.49,5.14,35.36,11.79,1.13.69,1.9,1.95,2.84,2.95-.15.25-.3.49-.45.74-3.55-.74-7.12-1.43-10.66-2.23-9.54-2.14-19.1-4.14-28.97-3.7-12.19.55-23.79,3.34-35.14,7.95-11.83,4.8-24.1,5.3-36.29.83-2.01-.74-4.27-1.33-4.87-3.34Z"/>
      <path class="cls-7" d="M217.95,377.67c8.73-7.52,34.92-8.47,41.69-1.38-9.91-1.64-18.7,2.01-27.82,3.07-3.49.4-7.1-.16-10.65-.44-.97-.08-1.9-.72-3.22-1.25Z"/>
    </g>
    <path class="cls-4" d="M44.83,56.46L225.17,11.69l180.34,44.78v196.41s10.28,97.19-180.34,151.11C34.55,350.06,44.83,252.87,44.83,252.87v-45.63"/>
    <g>
      <circle class="cls-5" cx="67.73" cy="55.83" r="51.83"/>
      <g>
        <path class="cls-6" d="M68.89,102.65c-4.89-.87-9.16-1.53-13.37-2.47-.93-.21-1.85-1.28-2.42-2.18-8.16-13.03-8.42-26.86-4.05-41.14,1.78-5.83,4.43-11.22,8.57-16.95,2.72,3.86,5.27,7.28,7.53,10.86.4.62-.24,2.01-.59,2.98-2.85,7.94-4.76,16-4.51,24.54.23,8.04,2.03,15.43,7.21,21.78.47.58.82,1.27,1.63,2.57Z"/>
        <path class="cls-6" d="M107.45,30.22c1.97,4.55,4.02,9.07,5.85,13.68.32.8-.06,2.07-.47,2.96-3.5,7.54-9.52,12.41-16.84,16.03-9.48,4.68-19.4,6.14-30.23,4.92,1.3-4.43,2.47-8.78,3.94-13.02.22-.64,1.83-1.03,2.84-1.14,9.36-1.01,18.19-3.28,25.33-9.96,3.95-3.69,6.99-7.94,8.63-13.13.31-.11.63-.22.94-.33Z"/>
        <path class="cls-6" d="M46.58,97.06c-5.64-2.12-10.32-5.58-13.5-10.19-2.04-2.95-2.58-7.22-2.95-10.98-1.6-16.06,2.86-30.49,12.51-43.36.23-.3.49-.58,1.01-1.2,3.31,1.56,6.65,3.14,10.18,4.81-12.1,19.36-16.07,39.32-7.25,60.91Z"/>
        <path class="cls-6" d="M65.09,73.11c19.53.88,36.39-3.05,50.06-18.53-.65,4.36-1.15,8.04-1.79,11.71-.23,1.31-.82,2.56-1.19,3.84-1.27,4.36-3.74,7.61-7.85,9.83-11.2,6.05-22.95,9.39-35.77,7.83-.84-.1-2.13-1.12-2.23-1.84-.58-4.26-.86-8.56-1.24-12.84Z"/>
        <path class="cls-6" d="M84.67,46.57c-5.07.62-9.42,1.24-13.79,1.58-.67.05-1.7-1.01-2.13-1.8-5.56-10.34-14.39-16.69-25.22-20.45-3.04-1.06-6.36-1.3-9.67-1.94,3.35-4.14,7.78-7.48,12.78-9.5,2.23-.9,5.55.09,8.12.98,11.2,3.87,19.06,11.79,25.1,21.69,1.65,2.7,2.89,5.65,4.8,9.44Z"/>
        <path class="cls-6" d="M89.09,44.43c-6.81-16.06-16.74-27.82-33.06-33.28,4.08-1.45,18.19-2.53,21.73-1.55,1.16.32,2.31,1.03,3.23,1.82,6.98,6.03,12.18,13.39,16.13,21.69.68,1.44.83,2.69-.39,3.87-2.39,2.33-4.79,4.67-7.63,7.45Z"/>
        <path class="cls-6" d="M24.27,74.8c-1.17-4.27-2.9-8.47-3.39-12.81-1.12-9.98.75-19.52,5.5-28.51,1.38-2.6,3.23-3.59,5.89-3.66,1.81-.05,3.63,0,5.98,0-9.03,13.89-14.25,28.45-12.93,44.88-.35.04-.71.08-1.06.12Z"/>
        <path class="cls-6" d="M68.36,93.12c11.85.31,22.43-1.32,32.81-5.43-1.96,3.09-8.24,8.17-13.54,10.55-3.4,1.53-7.04,2.53-10.59,3.7-.55.18-1.54.22-1.81-.1-2.23-2.68-4.33-5.47-6.87-8.73Z"/>
        <path class="cls-6" d="M101.6,30.04c-3.43-5.21-6.35-9.64-9.26-14.08.09-.13.19-.26.28-.4,3,2.38,6.41,4.41,8.8,7.28,1.09,1.32.19,4.3.19,7.19Z"/>
      </g>
    </g>
    <path class="cls-7" d="M428.17,114.5l-67.81-39.49-61.78,39.5.11.17v75.38c22.57,13.22,45.13,26.44,67.7,39.66l61.78-39.5-.11-.17h.11v-75.56Z"/>
    <path class="cls-1" d="M303.86,119.92c0-1.12.64-2.69,1.51-3.29l55.19-37.92v7.14c.04,21.49,0,42.97.06,64.46,0,1.81-.43,2.99-2.1,4M360.57,85.84c.04,21.49,0,42.97.06,64.46,0,1.81-.43,2.99-2.1,4l-54.72,32.94c0-21.35.06-45.67.06-67.32,0-1.12.64-2.69,1.51-3.29"/>
    <path class="cls-9" d="M398.74,120.45c2.88-3.27,5.6-6.37,8.55-9.73,3.7,2.05,7.35,4.06,11.34,6.27-3.79,4.5-7.04,9.09-11.04,12.9-3.58,3.41-3.7,6.35-1.88,10.73,4.27,10.27,7.91,20.8,11.34,31.7-4.34-2.68-8.71-5.3-12.97-8.1-.67-.44-.87-1.67-1.18-2.57-2.17-6.35-4.31-12.71-6.53-19.28-3.62,4.25-7.03,8.26-10.57,12.41-4.06-2.35-7.96-4.61-12.22-7.08,2.91-3.38,5.65-6.58,8.4-9.75,2.28-2.62,4.51-5.29,6.89-7.81,1.23-1.3,1.29-2.44.72-4.08-3.63-10.43-7.15-20.9-10.7-31.35-.17-.5-.22-1.05-.38-1.89,4.42,2.58,8.57,4.95,12.64,7.45.64.39,1.04,1.35,1.32,2.12,2.08,5.89,4.09,11.8,6.24,18.03Z"/>
    <path class="cls-4" d="M428.17,114.5c-22.3-13.16-44.6-26.33-66.89-39.49l-60.95,39.5.11.17v75.38c22.26,13.22,44.52,26.44,66.79,39.66l60.95-39.5-.1-.17h.1v-75.56Z"/>
    <path class="cls-1" d="M361.94,162.07c.86-.51,2.39-.69,3.3-.23l57.5,29.79c-1.82,1.1-3.63,2.19-5.45,3.29-16.38,9.94-32.79,19.82-49.17,29.77-1.38.84-2.5,1.01-4.14.05M417.29,194.93c-16.38,9.94-32.79,19.82-49.17,29.77-1.38.84-2.5,1.01-4.14.05l-53.46-31.69c16.3-9.84,34.88-21,51.41-30.99.86-.52,2.39-.69,3.3-.23"/>
    <polygon class="cls-9" points="316.21 126.24 316.21 138.88 328.27 127.36 328.27 162.24 341.55 154.28 341.55 102.35 327.77 110.85 316.21 126.24"/>
    <path class="cls-9" d="M343.9,202.26l11.46-7.54c-.33-1.07-.61-2.6-.33-4.37.11-.68.59-3.74,3.15-5.55.64-.45,1.78-1.26,3.25-1.08,1.52.18,2.46,1.3,2.64,1.5,1.98,2.33.87,6.07.11,8.35-1.23,3.71-3.46,9.3-7.61,16.28,3.12,2.42,6.25,4.85,9.37,7.27,10.59-7.38,21.18-14.77,31.78-22.15-3.17-1.63-6.33-3.26-9.5-4.89-6.19,4.14-12.38,8.29-18.57,12.43,1.13-1.37,9.16-11.41,5.79-21.34-.49-1.44-1.42-4.09-3.93-5.85-5.76-4.06-14.86.02-19.41,3.33-1.68,1.22-7.07,5.28-8.72,12.81-1.06,4.82-.1,8.84.52,10.8Z"/>
  </g>
</svg>