<?xml version="1.0" encoding="UTF-8"?>
<svg id="Layer_8" data-name="Layer 8" xmlns="http://www.w3.org/2000/svg" viewBox="0 0 1354.9 248.62">
  <defs>
    <style>
      .cls-1 {
        fill: #2273b9;
      }

      .cls-2 {
        fill: #1b3f7b;
      }
    </style>
  </defs>
  <path class="cls-2" d="M200.26,104.09c0,9.11-.91,17.58-2.73,25.41-1.82,7.47-4.46,15.03-7.92,22.68-2.92,6.19-7.1,12.66-12.57,19.4-5.1,6.19-10.66,11.38-16.67,15.57l50,54.64h-30.05c-3.82,0-7.83-.64-12.02-1.91-3.28-1.09-6.47-3.28-9.56-6.56l-28.96-31.97c-4.19,1.28-8.93,2.19-14.21,2.73-6.56.73-11.66,1.09-15.3,1.09-14.57,0-28.23-2.55-40.98-7.65-12.38-4.92-22.95-11.93-31.69-21.04-8.74-9.11-15.57-19.76-20.49-31.97-4.74-11.84-7.1-25.32-7.1-40.44s2.37-28.32,7.1-40.16c4.92-12.39,11.75-23.04,20.49-31.97,8.74-9.11,19.31-16.12,31.69-21.04,12.75-5.1,26.41-7.65,40.98-7.65s28.69,2.55,40.71,7.65c12.75,5.46,23.31,12.48,31.69,21.04,8.38,8.74,15.12,19.4,20.22,31.97,4.92,12.2,7.38,25.59,7.38,40.16ZM162.56,104.09c0-10.02-1.46-19.67-4.37-28.96-2.73-8.38-6.83-15.66-12.29-21.86-5.46-6.01-12.02-10.66-19.67-13.93-7.29-3.1-15.94-4.64-25.95-4.64s-18.67,1.55-25.95,4.64c-8.01,3.46-14.66,8.11-19.94,13.93-5.46,6.01-9.65,13.3-12.57,21.86-2.92,8.56-4.37,18.21-4.37,28.96s1.46,20.67,4.37,29.23c2.92,8.56,7.1,15.85,12.57,21.86,5.28,5.83,11.93,10.47,19.94,13.93,7.29,3.1,15.94,4.64,25.95,4.64s18.67-1.55,25.95-4.64c7.65-3.28,14.21-7.92,19.67-13.93,5.46-6.19,9.56-13.48,12.29-21.86,2.92-9.29,4.37-19.03,4.37-29.23ZM422.9,21.58c0,4.55-2.28,7.38-6.83,8.47l-1.64.27c-.55,0-1.19.09-1.91.27-.55.18-1.28.36-2.19.55l-8.2,1.37v91.25c0,11.84-1.91,22.68-5.74,32.51-4.01,10.38-9.38,19.03-16.12,25.95-7.1,7.1-15.76,12.75-25.95,16.94-9.84,4.01-21.22,6.01-34.15,6.01s-24.32-2-34.15-6.01c-9.84-4.01-18.4-9.65-25.68-16.94-7.1-7.29-12.57-15.94-16.39-25.95-3.65-9.29-5.46-20.13-5.46-32.51V32.51l-8.2-1.37c-.91-.18-1.73-.36-2.46-.55-.55-.18-1.09-.27-1.64-.27l-1.64-.27c-4.55-1.09-6.83-3.92-6.83-8.47V5.46h79.23v16.12c0,4.55-2.28,7.38-6.83,8.47l-1.91.27c-.55,0-1.19.09-1.91.27-.73.18-1.64.36-2.73.55l-8.47,1.37v90.98c0,8.2,1,15.03,3.01,20.49,1.82,5.83,4.82,11.11,9.02,15.85,3.46,4.01,8.1,7.29,13.93,9.84,5.28,2.37,11.65,3.55,19.12,3.55s13.84-1.18,19.12-3.55c6.19-2.73,10.93-6.01,14.21-9.84,3.46-4.01,6.37-9.2,8.74-15.57,2.19-6.92,3.28-13.75,3.28-20.49V32.51l-8.47-1.37c-1.09-.18-2.01-.36-2.73-.55-.73-.18-1.37-.27-1.91-.27l-1.91-.27c-4.55-1.09-6.83-3.92-6.83-8.47V5.46h79.23v16.12ZM502.2,30.33c-.55,0-1.18.09-1.91.27-.55.18-1.28.36-2.19.55l-7.92,1.37v143.44l7.92,1.37c.91.18,1.64.36,2.19.55.73.18,1.37.27,1.91.27l1.64.27c4.55,1.09,6.83,3.92,6.83,8.47v16.12h-78.14v-16.12c0-4.55,2.28-7.38,6.83-8.47l1.64-.27,4.1-.82,8.2-1.37V32.51l-8.2-1.37c-.91-.18-1.73-.36-2.46-.55-.55-.18-1.09-.27-1.64-.27l-1.64-.27c-4.55-1.09-6.83-3.92-6.83-8.47V5.46h78.14v16.12c0,4.55-2.28,7.38-6.83,8.47l-1.64.27ZM729.56,21.58c0,4.55-2.28,7.38-6.83,8.47l-1.64.27c-.55,0-1.18.09-1.91.27-.55.18-1.27.36-2.19.55l-7.92,1.37v170.48h-19.12c-2.55,0-4.92-.46-7.1-1.37-1.82-.73-3.73-2.37-5.74-4.92l-103.27-131.41c.37,4.01.55,6.83.55,8.47l.27,7.92v94.26l17.76,2.46c4.55,1.09,6.83,3.92,6.83,8.47v16.12h-77.59v-16.12c0-4.55,2.28-7.38,6.83-8.47l1.64-.27,4.1-.82,8.2-1.37V32.51l-8.2-1.37c-.91-.18-1.73-.36-2.46-.55-.55-.18-1.09-.27-1.64-.27l-1.64-.27c-4.55-1.09-6.83-3.92-6.83-8.47V5.46h39.89l4.1.27c1.28,0,2.28.27,3.01.82.73.18,1.55.73,2.46,1.64l2.73,3.28,103.82,131.96-.82-9.29c-.18-2-.27-4.92-.27-8.74V32.51l-17.76-2.46c-4.55-1.09-6.83-3.92-6.83-8.47V5.46h77.59v16.12ZM808.76,30.33c-.55,0-1.18.09-1.91.27-.55.18-1.28.36-2.19.55l-7.92,1.37v143.44l7.92,1.37c.91.18,1.64.36,2.19.55.73.18,1.37.27,1.91.27l1.64.27c4.55,1.09,6.83,3.92,6.83,8.47v16.12h-78.14v-16.12c0-4.55,2.28-7.38,6.83-8.47l1.64-.27,4.1-.82,8.2-1.37V32.51l-8.2-1.37c-.91-.18-1.73-.36-2.46-.55-.55-.18-1.09-.27-1.64-.27l-1.64-.27c-4.55-1.09-6.83-3.92-6.83-8.47V5.46h78.14v16.12c0,4.55-2.28,7.38-6.83,8.47l-1.64.27Z"/>
  <path class="cls-1" d="M972.19,101.36c2.55,9.29,3.82,19.4,3.82,30.33,0,9.84-1.46,19.58-4.37,29.23-2.55,8.74-6.56,16.48-12.02,23.22-4.92,6.19-11.2,11.29-18.85,15.3-7.1,3.64-15.48,5.46-25.14,5.46-8.02,0-14.66-1.18-19.94-3.55-6.01-2.73-11.02-6.1-15.03-10.11v30.33c1.82.36,3.37.64,4.64.82,1.46.36,2.64.64,3.55.82,2.91.36,4.28.55,4.1.55l1.64.27c4.55,1.09,6.83,4.01,6.83,8.74v15.85h-75.13v-15.85c0-4.74,2.28-7.65,6.83-8.74l1.64-.27,4.1-.55,8.2-1.64V89.89l-8.2-1.37c-.91-.18-1.73-.36-2.46-.55-.55-.18-1.09-.27-1.64-.27l-1.64-.27c-4.55-1.09-6.83-3.92-6.83-8.47v-16.12h41.25c2.19,0,4.1.55,5.74,1.64,1.46.91,2.46,2.46,3.01,4.64l2.73,12.84c5.46-6.19,11.93-11.38,19.4-15.57,7.28-4.01,15.85-6.01,25.68-6.01,8.01,0,15.03,1.55,21.04,4.64,6.37,3.28,11.84,7.92,16.39,13.93,4.55,5.83,8.1,13.3,10.66,22.4ZM938.86,153c1.46-5.28,2.19-12.29,2.19-21.04s-.64-15.76-1.91-21.04c-1.28-5.46-3.19-10.02-5.74-13.66-2.55-3.64-5.56-6.28-9.02-7.92-3.46-1.64-7.38-2.46-11.75-2.46-7.29,0-13.3,1.46-18.03,4.37-5.1,3.1-9.75,7.29-13.93,12.57v62.84c3.64,4.55,7.83,7.83,12.57,9.84,4.19,1.82,9.02,2.73,14.48,2.73s10.11-.91,13.93-2.73c3.64-1.64,7.1-4.55,10.38-8.74,3.1-4.19,5.37-9.11,6.83-14.75ZM1054.19,60.65c10.02,0,19.49,1.73,28.41,5.19,8.74,3.46,16.03,8.2,21.86,14.21,5.83,6.01,10.38,13.57,13.66,22.68,3.28,8.92,4.92,18.85,4.92,29.78s-1.64,20.95-4.92,30.05c-3.46,9.29-8.01,16.94-13.66,22.95-6.01,6.37-13.29,11.2-21.86,14.48-8.38,3.28-17.85,4.92-28.41,4.92s-20.12-1.64-28.69-4.92c-8.56-3.28-15.85-8.11-21.86-14.48-6.37-6.56-11.11-14.21-14.21-22.95-3.28-9.11-4.92-19.12-4.92-30.05s1.64-20.85,4.92-29.78c3.1-8.38,7.83-15.94,14.21-22.68,5.83-6.01,13.11-10.75,21.86-14.21,8.93-3.46,18.49-5.19,28.69-5.19ZM1054.19,178.95c11.66,0,20.22-3.92,25.68-11.75,5.65-8.2,8.47-19.67,8.47-34.42s-2.82-26.23-8.47-34.42c-5.46-8.01-14.02-12.02-25.68-12.02s-20.4,4.01-26.23,12.02c-5.83,8.01-8.74,19.58-8.74,34.7s2.92,26.14,8.74,34.15c5.65,7.83,14.39,11.75,26.23,11.75ZM1200.93,178.41c4.55,1.09,6.83,3.92,6.83,8.47v16.12h-75.13v-16.12c0-4.55,2.28-7.38,6.83-8.47l1.64-.27,4.1-.82,8.2-1.37V27.05l-8.2-1.37c-.91-.18-1.73-.36-2.46-.55-.55-.18-1.09-.27-1.64-.27l-1.64-.27c-4.55-1.09-6.83-3.92-6.83-8.47V0h54.37v175.95l8.2,1.37,4.1.82,1.64.27ZM1286.05,60.65c10.02,0,19.49,1.73,28.41,5.19,8.74,3.46,16.03,8.2,21.86,14.21,5.83,6.01,10.38,13.57,13.66,22.68,3.28,8.92,4.92,18.85,4.92,29.78s-1.64,20.95-4.92,30.05c-3.46,9.29-8.02,16.94-13.66,22.95-6.01,6.37-13.3,11.2-21.86,14.48-8.38,3.28-17.85,4.92-28.41,4.92s-20.13-1.64-28.69-4.92c-8.56-3.28-15.85-8.11-21.86-14.48-6.38-6.56-11.11-14.21-14.21-22.95-3.28-9.11-4.92-19.12-4.92-30.05s1.64-20.85,4.92-29.78c3.1-8.38,7.83-15.94,14.21-22.68,5.83-6.01,13.11-10.75,21.86-14.21,8.92-3.46,18.48-5.19,28.69-5.19ZM1286.05,178.95c11.65,0,20.22-3.92,25.68-11.75,5.64-8.2,8.47-19.67,8.47-34.42s-2.83-26.23-8.47-34.42c-5.46-8.01-14.03-12.02-25.68-12.02s-20.4,4.01-26.23,12.02c-5.83,8.01-8.74,19.58-8.74,34.7s2.91,26.14,8.74,34.15c5.64,7.83,14.39,11.75,26.23,11.75Z"/>
</svg>